<mxfile host="app.diagrams.net" agent="Mozilla/5.0 (Windows NT 10.0; Win64; x64) AppleWebKit/537.36 (KHTML, like Gecko) Chrome/131.0.0.0 Safari/537.36" version="24.9.2">
  <diagram name="PÃ¡gina-1" id="UrvuXJ-Fn0dYD8bm_6YS">
    <mxGraphModel dx="880" dy="468" grid="1" gridSize="10" guides="1" tooltips="1" connect="1" arrows="1" fold="1" page="1" pageScale="1" pageWidth="827" pageHeight="1169" math="0" shadow="0">
      <root>
        <mxCell id="0" />
        <mxCell id="1" parent="0" />
        <mxCell id="NNNQn2dqOlUbosPbvCEy-8" style="edgeStyle=orthogonalEdgeStyle;rounded=0;orthogonalLoop=1;jettySize=auto;html=1;flowAnimation=1;" edge="1" parent="1" source="NNNQn2dqOlUbosPbvCEy-1" target="NNNQn2dqOlUbosPbvCEy-3">
          <mxGeometry relative="1" as="geometry" />
        </mxCell>
        <mxCell id="NNNQn2dqOlUbosPbvCEy-15" value="Response" style="edgeLabel;html=1;align=center;verticalAlign=middle;resizable=0;points=[];" vertex="1" connectable="0" parent="NNNQn2dqOlUbosPbvCEy-8">
          <mxGeometry x="-0.2179" y="-1" relative="1" as="geometry">
            <mxPoint as="offset" />
          </mxGeometry>
        </mxCell>
        <mxCell id="NNNQn2dqOlUbosPbvCEy-10" value="" style="edgeStyle=orthogonalEdgeStyle;rounded=0;orthogonalLoop=1;jettySize=auto;html=1;flowAnimation=1;" edge="1" parent="1" source="NNNQn2dqOlUbosPbvCEy-1" target="NNNQn2dqOlUbosPbvCEy-9">
          <mxGeometry relative="1" as="geometry" />
        </mxCell>
        <mxCell id="NNNQn2dqOlUbosPbvCEy-17" value="Request" style="edgeLabel;html=1;align=center;verticalAlign=middle;resizable=0;points=[];" vertex="1" connectable="0" parent="NNNQn2dqOlUbosPbvCEy-10">
          <mxGeometry x="0.133" y="-3" relative="1" as="geometry">
            <mxPoint as="offset" />
          </mxGeometry>
        </mxCell>
        <mxCell id="NNNQn2dqOlUbosPbvCEy-13" value="" style="edgeStyle=orthogonalEdgeStyle;rounded=0;orthogonalLoop=1;jettySize=auto;html=1;flowAnimation=1;" edge="1" parent="1">
          <mxGeometry relative="1" as="geometry">
            <mxPoint x="282" y="196" as="sourcePoint" />
            <mxPoint x="282" y="131" as="targetPoint" />
          </mxGeometry>
        </mxCell>
        <mxCell id="NNNQn2dqOlUbosPbvCEy-21" value="Persist Log" style="edgeLabel;html=1;align=center;verticalAlign=middle;resizable=0;points=[];" vertex="1" connectable="0" parent="NNNQn2dqOlUbosPbvCEy-13">
          <mxGeometry x="0.1077" relative="1" as="geometry">
            <mxPoint as="offset" />
          </mxGeometry>
        </mxCell>
        <mxCell id="NNNQn2dqOlUbosPbvCEy-1" value="" style="shape=image;html=1;verticalAlign=top;verticalLabelPosition=bottom;labelBackgroundColor=#ffffff;imageAspect=0;aspect=fixed;image=https://cdn2.iconfinder.com/data/icons/boxicons-logos/24/bxl-spring-boot-128.png" vertex="1" parent="1">
          <mxGeometry x="222" y="195" width="120" height="120" as="geometry" />
        </mxCell>
        <mxCell id="NNNQn2dqOlUbosPbvCEy-7" value="" style="edgeStyle=orthogonalEdgeStyle;rounded=0;orthogonalLoop=1;jettySize=auto;html=1;flowAnimation=1;" edge="1" parent="1" source="NNNQn2dqOlUbosPbvCEy-3" target="NNNQn2dqOlUbosPbvCEy-1">
          <mxGeometry relative="1" as="geometry" />
        </mxCell>
        <mxCell id="NNNQn2dqOlUbosPbvCEy-14" value="Request" style="edgeLabel;html=1;align=center;verticalAlign=middle;resizable=0;points=[];" vertex="1" connectable="0" parent="NNNQn2dqOlUbosPbvCEy-7">
          <mxGeometry x="-0.162" y="2" relative="1" as="geometry">
            <mxPoint as="offset" />
          </mxGeometry>
        </mxCell>
        <mxCell id="NNNQn2dqOlUbosPbvCEy-3" value="" style="sketch=0;points=[[0,0,0],[0.25,0,0],[0.5,0,0],[0.75,0,0],[1,0,0],[0,1,0],[0.25,1,0],[0.5,1,0],[0.75,1,0],[1,1,0],[0,0.25,0],[0,0.5,0],[0,0.75,0],[1,0.25,0],[1,0.5,0],[1,0.75,0]];outlineConnect=0;fontColor=#232F3E;fillColor=#01A88D;strokeColor=#ffffff;dashed=0;verticalLabelPosition=bottom;verticalAlign=top;align=center;html=1;fontSize=12;fontStyle=0;aspect=fixed;shape=mxgraph.aws4.resourceIcon;resIcon=mxgraph.aws4.workspaces_thin_client;" vertex="1" parent="1">
          <mxGeometry x="135" y="386" width="78" height="78" as="geometry" />
        </mxCell>
        <mxCell id="NNNQn2dqOlUbosPbvCEy-19" style="edgeStyle=orthogonalEdgeStyle;rounded=0;orthogonalLoop=1;jettySize=auto;html=1;entryX=1;entryY=0.5;entryDx=0;entryDy=0;flowAnimation=1;" edge="1" parent="1" source="NNNQn2dqOlUbosPbvCEy-9" target="NNNQn2dqOlUbosPbvCEy-1">
          <mxGeometry relative="1" as="geometry" />
        </mxCell>
        <mxCell id="NNNQn2dqOlUbosPbvCEy-20" value="Response" style="edgeLabel;html=1;align=center;verticalAlign=middle;resizable=0;points=[];" vertex="1" connectable="0" parent="NNNQn2dqOlUbosPbvCEy-19">
          <mxGeometry y="1" relative="1" as="geometry">
            <mxPoint as="offset" />
          </mxGeometry>
        </mxCell>
        <mxCell id="NNNQn2dqOlUbosPbvCEy-9" value="" style="aspect=fixed;sketch=0;html=1;dashed=0;whitespace=wrap;verticalLabelPosition=bottom;verticalAlign=top;fillColor=#2875E2;strokeColor=#ffffff;points=[[0.005,0.63,0],[0.1,0.2,0],[0.9,0.2,0],[0.5,0,0],[0.995,0.63,0],[0.72,0.99,0],[0.5,1,0],[0.28,0.99,0]];shape=mxgraph.kubernetes.icon2;kubernetesLabel=1;prIcon=api" vertex="1" parent="1">
          <mxGeometry x="414" y="346" width="93.75" height="90" as="geometry" />
        </mxCell>
        <mxCell id="NNNQn2dqOlUbosPbvCEy-12" value="" style="html=1;verticalLabelPosition=bottom;align=center;labelBackgroundColor=#ffffff;verticalAlign=top;strokeWidth=2;strokeColor=#0080F0;shadow=0;dashed=0;shape=mxgraph.ios7.icons.data;" vertex="1" parent="1">
          <mxGeometry x="237" y="50" width="90" height="80" as="geometry" />
        </mxCell>
      </root>
    </mxGraphModel>
  </diagram>
</mxfile>
